<?xml version="1.0" encoding="UTF-8" standalone="no"?>
<svg
   width="210mm"
   height="297mm"
   viewBox="0 0 210 297"
   version="1.1"
   id="svg8"
   inkscape:version="1.4.2 (1:1.4.2+202505120737+ebf0e940d0)"
   sodipodi:docname="plecs_dll_principle.svg"
   inkscape:export-filename="plecs_dll_principle.png"
   inkscape:export-xdpi="300"
   inkscape:export-ydpi="300"
   xmlns:inkscape="http://www.inkscape.org/namespaces/inkscape"
   xmlns:sodipodi="http://sodipodi.sourceforge.net/DTD/sodipodi-0.dtd"
   xmlns="http://www.w3.org/2000/svg"
   xmlns:svg="http://www.w3.org/2000/svg"
   xmlns:rdf="http://www.w3.org/1999/02/22-rdf-syntax-ns#"
   xmlns:cc="http://creativecommons.org/ns#"
   xmlns:dc="http://purl.org/dc/elements/1.1/"
   xmlns:ns1="http://www.iki.fi/pav/software/textext/">
  <sodipodi:namedview
     inkscape:window-maximized="1"
     inkscape:window-y="0"
     inkscape:window-x="1920"
     inkscape:window-height="1052"
     inkscape:window-width="1920"
     showgrid="false"
     inkscape:document-rotation="0"
     inkscape:current-layer="layer1"
     inkscape:document-units="mm"
     inkscape:cy="193.92857"
     inkscape:cx="265"
     inkscape:zoom="2.8"
     inkscape:pageshadow="2"
     inkscape:pageopacity="1"
     borderopacity="1.0"
     bordercolor="#666666"
     pagecolor="#ffffff"
     id="base"
     inkscape:showpageshadow="2"
     inkscape:pagecheckerboard="0"
     inkscape:deskcolor="#d1d1d1" />
  <defs
     id="defs2">
    <inkscape:path-effect
       lpeversion="1"
       is_visible="true"
       id="path-effect1897"
       effect="spiro" />
    <inkscape:path-effect
       lpeversion="1"
       is_visible="true"
       id="path-effect1895"
       effect="spiro" />
    <inkscape:path-effect
       effect="spiro"
       id="path-effect1678"
       is_visible="true"
       lpeversion="1" />
    <inkscape:path-effect
       effect="spiro"
       id="path-effect1676"
       is_visible="true"
       lpeversion="1" />
    <inkscape:path-effect
       lpeversion="1"
       is_visible="true"
       id="path-effect1389"
       effect="spiro" />
    <inkscape:path-effect
       lpeversion="1"
       is_visible="true"
       id="path-effect1336"
       effect="spiro" />
    <inkscape:path-effect
       effect="spiro"
       id="path-effect1249"
       is_visible="true"
       lpeversion="1" />
    <inkscape:path-effect
       effect="spiro"
       id="path-effect1192"
       is_visible="true"
       lpeversion="1" />
    <marker
       inkscape:isstock="true"
       style="overflow:visible"
       id="TriangleOutM"
       refX="0.0"
       refY="0.0"
       orient="auto"
       inkscape:stockid="TriangleOutM">
      <path
         transform="scale(0.4)"
         style="fill-rule:evenodd;stroke:#000000;stroke-width:1pt;stroke-opacity:1;fill:#000000;fill-opacity:1"
         d="M 5.77,0.0 L -2.88,5.0 L -2.88,-5.0 L 5.77,0.0 z "
         id="path988" />
    </marker>
    <marker
       inkscape:isstock="true"
       style="overflow:visible"
       id="Arrow1Lstart"
       refX="0.0"
       refY="0.0"
       orient="auto"
       inkscape:stockid="Arrow1Lstart">
      <path
         transform="scale(0.8) translate(12.5,0)"
         style="fill-rule:evenodd;stroke:#000000;stroke-width:1pt;stroke-opacity:1;fill:#000000;fill-opacity:1"
         d="M 0.0,0.0 L 5.0,-5.0 L -12.5,0.0 L 5.0,5.0 L 0.0,0.0 z "
         id="path843" />
    </marker>
    <inkscape:path-effect
       lpeversion="1"
       is_visible="true"
       id="path-effect841"
       effect="spiro" />
    <marker
       inkscape:stockid="TriangleOutM"
       orient="auto"
       refY="0"
       refX="0"
       id="TriangleOutM-5"
       style="overflow:visible"
       inkscape:isstock="true">
      <path
         id="path988-4"
         d="M 5.77,0 -2.88,5 V -5 Z"
         style="fill:#000000;fill-opacity:1;fill-rule:evenodd;stroke:#000000;stroke-width:1pt;stroke-opacity:1"
         transform="scale(0.4)" />
    </marker>
    <marker
       inkscape:stockid="TriangleOutM"
       orient="auto"
       refY="0"
       refX="0"
       id="TriangleOutM-3"
       style="overflow:visible"
       inkscape:isstock="true">
      <path
         id="path988-2"
         d="M 5.77,0 -2.88,5 V -5 Z"
         style="fill:#000000;fill-opacity:1;fill-rule:evenodd;stroke:#000000;stroke-width:1pt;stroke-opacity:1"
         transform="scale(0.4)" />
    </marker>
    <marker
       inkscape:isstock="true"
       style="overflow:visible"
       id="TriangleOutM-3-5"
       refX="0"
       refY="0"
       orient="auto"
       inkscape:stockid="TriangleOutM">
      <path
         transform="scale(0.4)"
         style="fill:#000000;fill-opacity:1;fill-rule:evenodd;stroke:#000000;stroke-width:1pt;stroke-opacity:1"
         d="M 5.77,0 -2.88,5 V -5 Z"
         id="path988-2-7" />
    </marker>
    <marker
       inkscape:stockid="TriangleOutM"
       orient="auto"
       refY="0"
       refX="0"
       id="TriangleOutM-3-5-7"
       style="overflow:visible"
       inkscape:isstock="true">
      <path
         id="path988-2-7-1"
         d="M 5.77,0 -2.88,5 V -5 Z"
         style="fill:#000000;fill-opacity:1;fill-rule:evenodd;stroke:#000000;stroke-width:1pt;stroke-opacity:1"
         transform="scale(0.4)" />
    </marker>
    <marker
       inkscape:isstock="true"
       style="overflow:visible"
       id="TriangleOutM-3-1"
       refX="0"
       refY="0"
       orient="auto"
       inkscape:stockid="TriangleOutM">
      <path
         transform="scale(0.4)"
         style="fill:#000000;fill-opacity:1;fill-rule:evenodd;stroke:#000000;stroke-width:1pt;stroke-opacity:1"
         d="M 5.77,0 -2.88,5 V -5 Z"
         id="path988-2-1" />
    </marker>
    <marker
       inkscape:isstock="true"
       style="overflow:visible"
       id="TriangleOutM-5-9"
       refX="0"
       refY="0"
       orient="auto"
       inkscape:stockid="TriangleOutM">
      <path
         transform="scale(0.4)"
         style="fill:#000000;fill-opacity:1;fill-rule:evenodd;stroke:#000000;stroke-width:1pt;stroke-opacity:1"
         d="M 5.77,0 -2.88,5 V -5 Z"
         id="path988-4-1" />
    </marker>
    <defs
       id="id-dd0ca760-c617-49bc-a721-ba24841dc258">
      <g
         id="id-31709197-bfc1-4501-a8b9-3ea55c11b033">
        <symbol
           overflow="visible"
           id="id-7429e4ac-1ea5-4426-8180-14a1a8846b8f">
          <path
             style="stroke:none"
             d=""
             id="id-bd134ad5-e8bc-4cb2-879c-be21e1237408" />
        </symbol>
        <symbol
           overflow="visible"
           id="id-268f86fa-7f2a-4e0f-bfd5-7f91e3ccab18">
          <path
             style="stroke:none"
             d="M 2.953125,-4.265625 H 2.15625 l 0.28125,-1.03125 c 0,-0.015625 0,-0.03125 0,-0.046875 0,-0.0625 -0.03125,-0.09375 -0.078125,-0.09375 -0.0625,0 -0.09375,0 -0.140625,0.078125 -0.953125,1.25 -1.65625,1.03125 -1.65625,1.359375 0,0 0,0.015625 0.015625,0.046875 H 1.3125 l -0.71875,2.75 c -0.03125,0.125 -0.21875,0.75 -0.21875,0.9375 0,0.21875 0.203125,0.375 0.46875,0.375 0.46875,0 0.796875,-0.28125 1.421875,-1.203125 l -0.125,-0.078125 c -0.5,0.640625 -0.65625,0.796875 -0.8125,0.796875 -0.09375,0 -0.15625,-0.078125 -0.15625,-0.203125 0,-0.015625 0,-0.015625 0.015625,-0.046875 l 0.875,-3.328125 h 0.84375 z m 0,0"
             id="id-ce5bd9d2-23d8-4155-9906-99ccb344cd23" />
        </symbol>
        <symbol
           overflow="visible"
           id="id-17183fe8-b270-4ab8-ab72-8f5c6f278d0a">
          <path
             style="stroke:none"
             d=""
             id="id-2034c1eb-f591-4da3-86df-ac6e2abb3be0" />
        </symbol>
        <symbol
           overflow="visible"
           id="id-1880f1e2-e0e6-4b81-9a30-2308a9c630de">
          <path
             style="stroke:none"
             d="M 3.078125,-1.140625 2.96875,-1.1875 c -0.359375,0.546875 -0.671875,0.765625 -1.125,0.765625 -0.40625,0 -0.703125,-0.203125 -0.921875,-0.59375 -0.140625,-0.28125 -0.203125,-0.53125 -0.21875,-1 H 2.9375 C 2.890625,-2.484375 2.8125,-2.703125 2.625,-2.921875 2.40625,-3.1875 2.078125,-3.34375 1.703125,-3.34375 c -0.90625,0 -1.515625,0.734375 -1.515625,1.78125 0,1.015625 0.515625,1.640625 1.359375,1.640625 0.6875,0 1.234375,-0.4375 1.53125,-1.21875 z M 2.203125,-2.25 H 0.71875 c 0.078125,-0.5625 0.328125,-0.828125 0.765625,-0.828125 0.453125,0 0.625,0.203125 0.71875,0.828125 z m 0,0"
             id="id-fe52807d-54e7-420e-a202-b71f437cfb65" />
        </symbol>
        <symbol
           overflow="visible"
           id="id-e07906a8-5a7e-46c8-b171-6d2545c26fba">
          <path
             style="stroke:none"
             d="m 3.484375,0 v -0.109375 c -0.234375,0 -0.375,-0.109375 -0.59375,-0.4375 l -0.9375,-1.421875 0.609375,-0.875 c 0.140625,-0.1875 0.34375,-0.3125 0.578125,-0.3125 V -3.265625 H 2 V -3.15625 C 2.21875,-3.140625 2.28125,-3.109375 2.28125,-3 c 0,0.09375 -0.078125,0.25 -0.265625,0.46875 -0.03125,0.046875 -0.125,0.171875 -0.21875,0.328125 l -0.09375,-0.15625 C 1.5,-2.65625 1.359375,-2.90625 1.359375,-3 c 0,-0.109375 0.09375,-0.15625 0.3125,-0.15625 v -0.109375 h -1.5 v 0.109375 h 0.0625 c 0.21875,0 0.34375,0.09375 0.5625,0.4375 l 0.6875,1.046875 -0.828125,1.1875 C 0.4375,-0.1875 0.359375,-0.125 0.125,-0.109375 V 0 h 1.046875 v -0.109375 c -0.203125,0 -0.28125,-0.03125 -0.28125,-0.125 0,-0.046875 0.046875,-0.15625 0.140625,-0.296875 l 0.578125,-0.90625 0.65625,1.015625 C 2.296875,-0.375 2.3125,-0.328125 2.3125,-0.28125 c 0,0.125 -0.046875,0.15625 -0.296875,0.171875 V 0 Z m 0,0"
             id="id-0a43826e-7e98-4be3-ac59-6f8d98b374a5" />
        </symbol>
        <symbol
           overflow="visible"
           id="id-9840d65a-1d4c-4582-a3c1-d5e325944ae4">
          <path
             style="stroke:none"
             d="M 3,-1.0625 2.890625,-1.140625 c -0.34375,0.515625 -0.609375,0.6875 -1.015625,0.6875 -0.671875,0 -1.140625,-0.578125 -1.140625,-1.421875 0,-0.75 0.40625,-1.25 1,-1.25 0.25,0 0.34375,0.078125 0.421875,0.34375 L 2.203125,-2.625 c 0.0625,0.21875 0.1875,0.34375 0.34375,0.34375 0.1875,0 0.34375,-0.140625 0.34375,-0.3125 0,-0.40625 -0.5,-0.75 -1.125,-0.75 -0.328125,0 -0.6875,0.125 -0.96875,0.375 C 0.40625,-2.640625 0.1875,-2.140625 0.1875,-1.546875 c 0,0.9375 0.5625,1.625 1.375,1.625 0.3125,0 0.59375,-0.109375 0.828125,-0.3125 C 2.609375,-0.40625 2.765625,-0.625 3,-1.0625 Z m 0,0"
             id="id-ff0f1434-f8b9-4ca9-912b-6bd48d721b44" />
        </symbol>
      </g>
    </defs>
  </defs>
  <metadata
     id="metadata5">
    <rdf:RDF>
      <cc:Work
         rdf:about="">
        <dc:format>image/svg+xml</dc:format>
        <dc:type
           rdf:resource="http://purl.org/dc/dcmitype/StillImage" />
        <dc:title />
      </cc:Work>
    </rdf:RDF>
  </metadata>
  <g
     id="layer1"
     inkscape:groupmode="layer"
     inkscape:label="Layer 1">
    <rect
       y="41.56498"
       x="55.901337"
       height="11.559406"
       width="20.847021"
       id="rect833"
       style="fill:none;stroke:#000000;stroke-width:0.4;stroke-linecap:round;stroke-miterlimit:4;stroke-dasharray:none;stop-color:#000000" />
    <path
       inkscape:original-d="m 44.926983,51.2535 c 1.345739,2.65e-4 2.691367,2.65e-4 4.036884,0"
       inkscape:path-effect="#path-effect841"
       id="path839"
       d="m 44.926983,51.2535 h 4.036884"
       style="fill:none;stroke:#000000;stroke-width:0.4;stroke-linecap:butt;stroke-linejoin:miter;stroke-miterlimit:4;stroke-dasharray:none;stroke-opacity:1;marker-end:url(#TriangleOutM)"
       inkscape:export-xdpi="600"
       inkscape:export-ydpi="600" />
    <path
       style="fill:none;stroke:#000000;stroke-width:0.4;stroke-linecap:butt;stroke-linejoin:miter;stroke-miterlimit:4;stroke-dasharray:none;stroke-opacity:1;marker-end:url(#TriangleOutM-5)"
       d="m 44.926983,47.344683 h 4.036884"
       id="path839-1"
       inkscape:path-effect="#path-effect1192"
       inkscape:original-d="m 44.926983,47.344683 c 1.345739,2.64e-4 2.691367,2.64e-4 4.036884,0"
       inkscape:export-xdpi="600"
       inkscape:export-ydpi="600" />
    <path
       style="fill:none;stroke:#000000;stroke-width:0.4;stroke-linecap:butt;stroke-linejoin:miter;stroke-miterlimit:4;stroke-dasharray:none;stroke-opacity:1;marker-end:url(#TriangleOutM-3)"
       d="m 44.926983,43.435865 h 4.036884"
       id="path839-3"
       inkscape:path-effect="#path-effect1249"
       inkscape:original-d="m 44.926983,43.435865 c 1.345739,2.65e-4 2.691367,2.65e-4 4.036884,0"
       inkscape:export-xdpi="600"
       inkscape:export-ydpi="600" />
    <path
       inkscape:original-d="m 50.375211,42.33338 c 2.3e-4,3.341068 2.3e-4,6.681936 0,10.022606"
       inkscape:path-effect="#path-effect1336"
       id="path1334"
       d="M 50.375211,42.33338 V 52.355986"
       style="fill:none;stroke:#000000;stroke-width:0.55;stroke-linecap:butt;stroke-linejoin:miter;stroke-miterlimit:4;stroke-dasharray:none;stroke-opacity:1"
       inkscape:export-xdpi="600"
       inkscape:export-ydpi="600" />
    <path
       inkscape:original-d="m 50.52811,47.344683 c 1.345739,2.65e-4 2.691367,2.65e-4 4.036883,0"
       inkscape:path-effect="#path-effect1389"
       id="path839-3-4"
       d="m 50.52811,47.344683 h 4.036883"
       style="fill:none;stroke:#000000;stroke-width:0.4;stroke-linecap:butt;stroke-linejoin:miter;stroke-miterlimit:4;stroke-dasharray:none;stroke-opacity:1;marker-end:url(#TriangleOutM-3-5)"
       inkscape:export-xdpi="600"
       inkscape:export-ydpi="600" />
    <path
       style="fill:none;stroke:#000000;stroke-width:0.55;stroke-linecap:butt;stroke-linejoin:miter;stroke-miterlimit:4;stroke-dasharray:none;stroke-opacity:1"
       d="M 82.379881,42.33338 V 52.355986"
       id="path1334-8"
       inkscape:path-effect="#path-effect1678"
       inkscape:original-d="m 82.379881,42.33338 c 2.3e-4,3.341068 2.3e-4,6.681936 0,10.022606"
       inkscape:export-xdpi="600"
       inkscape:export-ydpi="600" />
    <path
       style="fill:none;stroke:#000000;stroke-width:0.4;stroke-linecap:butt;stroke-linejoin:miter;stroke-miterlimit:4;stroke-dasharray:none;stroke-opacity:1;marker-end:url(#TriangleOutM-3-5-7)"
       d="m 76.931654,47.344683 h 4.036883"
       id="path839-3-4-1"
       inkscape:path-effect="#path-effect1676"
       inkscape:original-d="m 76.931654,47.344683 c 1.345739,2.64e-4 2.691367,2.64e-4 4.036883,0"
       inkscape:export-xdpi="600"
       inkscape:export-ydpi="600" />
    <path
       inkscape:original-d="m 82.634,49.299092 c 1.345739,2.64e-4 2.691367,2.64e-4 4.036884,0"
       inkscape:path-effect="#path-effect1897"
       id="path839-1-3"
       d="m 82.634,49.299092 h 4.036884"
       style="fill:none;stroke:#000000;stroke-width:0.4;stroke-linecap:butt;stroke-linejoin:miter;stroke-miterlimit:4;stroke-dasharray:none;stroke-opacity:1;marker-end:url(#TriangleOutM-5-9)"
       inkscape:export-xdpi="600"
       inkscape:export-ydpi="600" />
    <path
       inkscape:original-d="m 82.634,45.390274 c 1.345739,2.65e-4 2.691367,2.65e-4 4.036884,0"
       inkscape:path-effect="#path-effect1895"
       id="path839-3-3"
       d="m 82.634,45.390274 h 4.036884"
       style="fill:none;stroke:#000000;stroke-width:0.4;stroke-linecap:butt;stroke-linejoin:miter;stroke-miterlimit:4;stroke-dasharray:none;stroke-opacity:1;marker-end:url(#TriangleOutM-3-1)"
       inkscape:export-xdpi="600"
       inkscape:export-ydpi="600" />
    <g
       transform="matrix(0.440972,0,0,0.440972,42.864056,41.376231)"
       ns1:version="1.8.2"
       ns1:texconverter="pdflatex"
       ns1:pdfconverter="inkscape"
       ns1:text="$i$\n"
       ns1:preamble="C:/Users/marco/AppData/Roaming/inkscape/extensions/textext/default_packages.tex"
       ns1:scale="1.25"
       ns1:alignment="middle center"
       ns1:stroke-to-path="0"
       ns1:inkscapeversion="1.0"
       ns1:jacobian_sqrt="0.440972"
       id="g1146">
      <defs
         id="id-052e52f8-1320-4374-a736-206f234ce7e1">
        <g
           id="id-634f61fe-3ff0-4de0-ae56-cc7f4fe5c2e7">
          <symbol
             id="id-6c231fdd-c99c-47b8-9653-e06367a1f950"
             overflow="visible">
            <path
               id="id-89a0f13e-ec18-4494-9d8f-1edbf6cb6a6e"
               d=""
               style="stroke:none;stroke-width:0" />
          </symbol>
          <symbol
             id="id-73ccf523-2083-46bf-a49a-4d08cc34dff8"
             overflow="visible">
            <path
               id="id-f7dd180e-f7ff-4f68-8365-9b2f227bfc2c"
               d="m 2.828125,-6.234375 c 0,-0.203125 -0.140625,-0.359375 -0.359375,-0.359375 -0.28125,0 -0.546875,0.265625 -0.546875,0.53125 0,0.1875 0.140625,0.359375 0.375,0.359375 0.234375,0 0.53125,-0.234375 0.53125,-0.53125 z m -0.75,3.75 c 0.109375,-0.28125 0.109375,-0.3125 0.21875,-0.578125 0.078125,-0.203125 0.125,-0.34375 0.125,-0.53125 0,-0.4375 -0.3125,-0.8125 -0.8125,-0.8125 -0.9375,0 -1.3125,1.453125 -1.3125,1.53125 0,0.109375 0.09375,0.109375 0.109375,0.109375 0.109375,0 0.109375,-0.03125 0.15625,-0.1875 0.28125,-0.9375 0.671875,-1.234375 1.015625,-1.234375 0.078125,0 0.25,0 0.25,0.3125 0,0.21875 -0.078125,0.421875 -0.109375,0.53125 -0.078125,0.25 -0.53125,1.40625 -0.6875,1.84375 -0.109375,0.25 -0.234375,0.578125 -0.234375,0.796875 0,0.46875 0.34375,0.8125 0.8125,0.8125 0.9375,0 1.3125,-1.4375 1.3125,-1.53125 0,-0.109375 -0.09375,-0.109375 -0.125,-0.109375 -0.09375,0 -0.09375,0.03125 -0.140625,0.1875 -0.1875,0.625 -0.515625,1.234375 -1.015625,1.234375 -0.171875,0 -0.25,-0.09375 -0.25,-0.328125 0,-0.25 0.0625,-0.390625 0.296875,-1 z m 0,0"
               style="stroke:none;stroke-width:0" />
          </symbol>
        </g>
      </defs>
      <g
         transform="translate(-149.009,-128.171)"
         id="id-49901fe8-276e-401d-8c7e-a0e3a2a0692a">
        <g
           id="id-5affa6dc-44ab-4f2d-83fa-2e2675caf1e9"
           style="fill:#000000;fill-opacity:1">
          <g
             transform="translate(148.712,134.765)"
             id="g1142">
            <path
               id="id-5b4930b4-6e18-436b-b033-e35e6cf25986"
               d="m 2.828125,-6.234375 c 0,-0.203125 -0.140625,-0.359375 -0.359375,-0.359375 -0.28125,0 -0.546875,0.265625 -0.546875,0.53125 0,0.1875 0.140625,0.359375 0.375,0.359375 0.234375,0 0.53125,-0.234375 0.53125,-0.53125 z m -0.75,3.75 c 0.109375,-0.28125 0.109375,-0.3125 0.21875,-0.578125 0.078125,-0.203125 0.125,-0.34375 0.125,-0.53125 0,-0.4375 -0.3125,-0.8125 -0.8125,-0.8125 -0.9375,0 -1.3125,1.453125 -1.3125,1.53125 0,0.109375 0.09375,0.109375 0.109375,0.109375 0.109375,0 0.109375,-0.03125 0.15625,-0.1875 0.28125,-0.9375 0.671875,-1.234375 1.015625,-1.234375 0.078125,0 0.25,0 0.25,0.3125 0,0.21875 -0.078125,0.421875 -0.109375,0.53125 -0.078125,0.25 -0.53125,1.40625 -0.6875,1.84375 -0.109375,0.25 -0.234375,0.578125 -0.234375,0.796875 0,0.46875 0.34375,0.8125 0.8125,0.8125 0.9375,0 1.3125,-1.4375 1.3125,-1.53125 0,-0.109375 -0.09375,-0.109375 -0.125,-0.109375 -0.09375,0 -0.09375,0.03125 -0.140625,0.1875 -0.1875,0.625 -0.515625,1.234375 -1.015625,1.234375 -0.171875,0 -0.25,-0.09375 -0.25,-0.328125 0,-0.25 0.0625,-0.390625 0.296875,-1 z m 0,0"
               style="stroke:none;stroke-width:0" />
          </g>
        </g>
      </g>
    </g>
    <g
       transform="matrix(0.440972,0,0,0.440972,42.092355,46.1189)"
       ns1:version="1.8.2"
       ns1:texconverter="pdflatex"
       ns1:pdfconverter="inkscape"
       ns1:text="$v$\n"
       ns1:preamble="C:/Users/marco/AppData/Roaming/inkscape/extensions/textext/default_packages.tex"
       ns1:scale="1.25"
       ns1:alignment="middle center"
       ns1:stroke-to-path="0"
       ns1:inkscapeversion="1.0"
       ns1:jacobian_sqrt="0.440972"
       id="g1311">
      <defs
         id="id-0235b748-1202-48e8-bcbb-51445ed1093e">
        <g
           id="id-fc841111-a59d-4251-9de7-e91d59743b3d">
          <symbol
             id="id-122b261c-c9b3-414b-81f5-6a0659f7f95b"
             overflow="visible">
            <path
               id="id-44f5e0da-d831-4a3c-b95a-9af4395c35aa"
               d=""
               style="stroke:none;stroke-width:0" />
          </symbol>
          <symbol
             id="id-43b54487-9dfb-4137-a5cc-d4dc81c73759"
             overflow="visible">
            <path
               id="id-1c5b703b-b33c-44d9-b22e-00538af04d4a"
               d="m 4.671875,-3.703125 c 0,-0.546875 -0.265625,-0.703125 -0.4375,-0.703125 -0.25,0 -0.5,0.265625 -0.5,0.484375 0,0.125 0.046875,0.1875 0.15625,0.296875 0.21875,0.203125 0.34375,0.453125 0.34375,0.8125 0,0.421875 -0.609375,2.703125 -1.765625,2.703125 -0.515625,0 -0.75,-0.34375 -0.75,-0.875 0,-0.546875 0.28125,-1.28125 0.578125,-2.109375 0.078125,-0.171875 0.125,-0.3125 0.125,-0.5 0,-0.4375 -0.3125,-0.8125 -0.8125,-0.8125 -0.9375,0 -1.3125,1.453125 -1.3125,1.53125 0,0.109375 0.09375,0.109375 0.109375,0.109375 0.109375,0 0.109375,-0.03125 0.15625,-0.1875 0.296875,-1 0.71875,-1.234375 1.015625,-1.234375 0.078125,0 0.25,0 0.25,0.3125 0,0.25 -0.109375,0.53125 -0.171875,0.703125 -0.4375,1.15625 -0.5625,1.609375 -0.5625,2.046875 0,1.078125 0.875,1.234375 1.328125,1.234375 1.671875,0 2.25,-3.296875 2.25,-3.8125 z m 0,0"
               style="stroke:none;stroke-width:0" />
          </symbol>
        </g>
      </defs>
      <g
         transform="translate(-149.009,-130.359)"
         id="id-fd061ac5-def6-4e1d-8e58-ed745dded893">
        <g
           id="id-4fb91135-1aee-43fb-ada7-4ff45312754d"
           style="fill:#000000;fill-opacity:1">
          <g
             transform="translate(148.712,134.765)"
             id="g1307">
            <path
               id="id-264adb2a-71dc-4285-893d-3fe67be64c35"
               d="m 4.671875,-3.703125 c 0,-0.546875 -0.265625,-0.703125 -0.4375,-0.703125 -0.25,0 -0.5,0.265625 -0.5,0.484375 0,0.125 0.046875,0.1875 0.15625,0.296875 0.21875,0.203125 0.34375,0.453125 0.34375,0.8125 0,0.421875 -0.609375,2.703125 -1.765625,2.703125 -0.515625,0 -0.75,-0.34375 -0.75,-0.875 0,-0.546875 0.28125,-1.28125 0.578125,-2.109375 0.078125,-0.171875 0.125,-0.3125 0.125,-0.5 0,-0.4375 -0.3125,-0.8125 -0.8125,-0.8125 -0.9375,0 -1.3125,1.453125 -1.3125,1.53125 0,0.109375 0.09375,0.109375 0.109375,0.109375 0.109375,0 0.109375,-0.03125 0.15625,-0.1875 0.296875,-1 0.71875,-1.234375 1.015625,-1.234375 0.078125,0 0.25,0 0.25,0.3125 0,0.25 -0.109375,0.53125 -0.171875,0.703125 -0.4375,1.15625 -0.5625,1.609375 -0.5625,2.046875 0,1.078125 0.875,1.234375 1.328125,1.234375 1.671875,0 2.25,-3.296875 2.25,-3.8125 z m 0,0"
               style="stroke:none;stroke-width:0" />
          </g>
        </g>
      </g>
    </g>
    <g
       transform="matrix(0.440972,0,0,0.440972,37.861945,50.275359)"
       ns1:version="1.8.2"
       ns1:texconverter="pdflatex"
       ns1:pdfconverter="inkscape"
       ns1:text="$v_\\text{ref}$\n"
       ns1:preamble="C:/Users/marco/AppData/Roaming/inkscape/extensions/textext/default_packages.tex"
       ns1:scale="1.25"
       ns1:alignment="middle center"
       ns1:stroke-to-path="0"
       ns1:inkscapeversion="1.0"
       ns1:jacobian_sqrt="0.440972"
       id="g1505">
      <defs
         id="id-b1d4b953-d509-4c73-bb72-620742d44d07">
        <g
           id="id-665f2022-dc9f-4bf4-bce3-cb239898e16a">
          <symbol
             id="id-474259cd-a2ec-4802-a228-412ae34769a7"
             overflow="visible">
            <path
               id="id-c6a2194a-5f12-4af9-a85a-7406aac90a61"
               d=""
               style="stroke:none;stroke-width:0" />
          </symbol>
          <symbol
             id="id-930adcf4-7e2c-4792-abd0-6cf4f69c0ebc"
             overflow="visible">
            <path
               id="id-7877cbbd-7064-4db5-810f-5b9393e640fa"
               d="m 4.671875,-3.703125 c 0,-0.546875 -0.265625,-0.703125 -0.4375,-0.703125 -0.25,0 -0.5,0.265625 -0.5,0.484375 0,0.125 0.046875,0.1875 0.15625,0.296875 0.21875,0.203125 0.34375,0.453125 0.34375,0.8125 0,0.421875 -0.609375,2.703125 -1.765625,2.703125 -0.515625,0 -0.75,-0.34375 -0.75,-0.875 0,-0.546875 0.28125,-1.28125 0.578125,-2.109375 0.078125,-0.171875 0.125,-0.3125 0.125,-0.5 0,-0.4375 -0.3125,-0.8125 -0.8125,-0.8125 -0.9375,0 -1.3125,1.453125 -1.3125,1.53125 0,0.109375 0.09375,0.109375 0.109375,0.109375 0.109375,0 0.109375,-0.03125 0.15625,-0.1875 0.296875,-1 0.71875,-1.234375 1.015625,-1.234375 0.078125,0 0.25,0 0.25,0.3125 0,0.25 -0.109375,0.53125 -0.171875,0.703125 -0.4375,1.15625 -0.5625,1.609375 -0.5625,2.046875 0,1.078125 0.875,1.234375 1.328125,1.234375 1.671875,0 2.25,-3.296875 2.25,-3.8125 z m 0,0"
               style="stroke:none;stroke-width:0" />
          </symbol>
          <symbol
             id="id-42cd1255-0316-48a6-842d-c0f1b0c301ac"
             overflow="visible">
            <path
               id="id-4607ed94-e2d4-45cb-aea0-c23c7a76a598"
               d=""
               style="stroke:none;stroke-width:0" />
          </symbol>
          <symbol
             id="id-05a0bb6f-4872-4b4d-8a0b-d58a64ccdd27"
             overflow="visible">
            <path
               id="id-c8aecd98-6e5d-4abc-b6f7-feadd7548f9e"
               d="m 1.390625,-1.59375 c 0,-0.578125 0.265625,-1.28125 0.9375,-1.28125 -0.0625,0.046875 -0.125,0.140625 -0.125,0.25 0,0.234375 0.1875,0.3125 0.3125,0.3125 0.171875,0 0.328125,-0.109375 0.328125,-0.3125 0,-0.234375 -0.234375,-0.453125 -0.5625,-0.453125 -0.34375,0 -0.734375,0.21875 -0.9375,0.75 v -0.75 L 0.34375,-3 v 0.25 c 0.46875,0 0.515625,0.046875 0.515625,0.390625 v 1.8125 C 0.859375,-0.25 0.796875,-0.25 0.34375,-0.25 V 0 c 0.03125,0 0.5,-0.03125 0.796875,-0.03125 0.296875,0 0.59375,0.015625 0.90625,0.03125 V -0.25 H 1.90625 c -0.515625,0 -0.515625,-0.078125 -0.515625,-0.3125 z m 0,0"
               style="stroke:none;stroke-width:0" />
          </symbol>
          <symbol
             id="id-43c702de-a93f-4da3-9cc3-9658d851ea4e"
             overflow="visible">
            <path
               id="id-4388e1ca-e1c3-4b22-94eb-7da82634eb33"
               d="m 3.0625,-1.59375 c 0.15625,0 0.203125,0 0.203125,-0.140625 0,-0.625 -0.34375,-1.375 -1.390625,-1.375 -0.90625,0 -1.609375,0.71875 -1.609375,1.578125 0,0.890625 0.78125,1.59375 1.703125,1.59375 0.9375,0 1.296875,-0.75 1.296875,-0.90625 0,-0.015625 -0.015625,-0.09375 -0.125,-0.09375 -0.09375,0 -0.109375,0.046875 -0.125,0.109375 -0.21875,0.5625 -0.75,0.671875 -1,0.671875 C 1.6875,-0.15625 1.375,-0.296875 1.171875,-0.5625 0.90625,-0.890625 0.90625,-1.3125 0.90625,-1.59375 Z M 0.90625,-1.765625 C 0.984375,-2.75 1.609375,-2.90625 1.875,-2.90625 c 0.859375,0 0.890625,0.96875 0.90625,1.140625 z m 0,0"
               style="stroke:none;stroke-width:0" />
          </symbol>
          <symbol
             id="id-18879ccf-88a6-4b6b-bd16-996a51b879b4"
             overflow="visible">
            <path
               id="id-7b1b8f76-75f9-4708-9430-8e8bdfd1e63a"
               d="m 1.4375,-2.75 h 0.875 V -3 H 1.40625 v -0.78125 c 0,-0.640625 0.375,-0.921875 0.671875,-0.921875 0.0625,0 0.140625,0 0.203125,0.03125 C 2.1875,-4.625 2.125,-4.515625 2.125,-4.390625 c 0,0.1875 0.140625,0.3125 0.328125,0.3125 0.1875,0 0.328125,-0.125 0.328125,-0.3125 0,-0.3125 -0.3125,-0.515625 -0.6875,-0.515625 -0.546875,0 -1.1875,0.390625 -1.1875,1.125 V -3 H 0.3125 v 0.25 h 0.59375 v 2.203125 C 0.90625,-0.25 0.84375,-0.25 0.390625,-0.25 V 0 C 0.421875,0 0.90625,-0.03125 1.1875,-0.03125 1.484375,-0.03125 1.796875,-0.015625 2.09375,0 V -0.25 H 1.953125 C 1.4375,-0.25 1.4375,-0.328125 1.4375,-0.5625 Z m 0,0"
               style="stroke:none;stroke-width:0" />
          </symbol>
        </g>
      </defs>
      <g
         transform="translate(-149.009,-130.359)"
         id="id-af17d6ce-1139-45f9-af6c-b2ccc4aa670c">
        <g
           id="id-b05b7769-2e9e-47bc-a5ab-723bf12bb06e"
           style="fill:#000000;fill-opacity:1">
          <g
             transform="translate(148.712,134.765)"
             id="g1491">
            <path
               id="id-c679b8f8-26bc-4a02-a8a4-44c42ed34f13"
               d="m 4.671875,-3.703125 c 0,-0.546875 -0.265625,-0.703125 -0.4375,-0.703125 -0.25,0 -0.5,0.265625 -0.5,0.484375 0,0.125 0.046875,0.1875 0.15625,0.296875 0.21875,0.203125 0.34375,0.453125 0.34375,0.8125 0,0.421875 -0.609375,2.703125 -1.765625,2.703125 -0.515625,0 -0.75,-0.34375 -0.75,-0.875 0,-0.546875 0.28125,-1.28125 0.578125,-2.109375 0.078125,-0.171875 0.125,-0.3125 0.125,-0.5 0,-0.4375 -0.3125,-0.8125 -0.8125,-0.8125 -0.9375,0 -1.3125,1.453125 -1.3125,1.53125 0,0.109375 0.09375,0.109375 0.109375,0.109375 0.109375,0 0.109375,-0.03125 0.15625,-0.1875 0.296875,-1 0.71875,-1.234375 1.015625,-1.234375 0.078125,0 0.25,0 0.25,0.3125 0,0.25 -0.109375,0.53125 -0.171875,0.703125 -0.4375,1.15625 -0.5625,1.609375 -0.5625,2.046875 0,1.078125 0.875,1.234375 1.328125,1.234375 1.671875,0 2.25,-3.296875 2.25,-3.8125 z m 0,0"
               style="stroke:none;stroke-width:0" />
          </g>
        </g>
        <g
           id="id-14da587b-99d7-412f-84a1-5b0975f144ac"
           style="fill:#000000;fill-opacity:1">
          <g
             transform="translate(153.541,136.259)"
             id="g1495">
            <path
               id="id-29242d0d-2331-4964-bebf-81d9c7c88355"
               d="m 1.390625,-1.59375 c 0,-0.578125 0.265625,-1.28125 0.9375,-1.28125 -0.0625,0.046875 -0.125,0.140625 -0.125,0.25 0,0.234375 0.1875,0.3125 0.3125,0.3125 0.171875,0 0.328125,-0.109375 0.328125,-0.3125 0,-0.234375 -0.234375,-0.453125 -0.5625,-0.453125 -0.34375,0 -0.734375,0.21875 -0.9375,0.75 v -0.75 L 0.34375,-3 v 0.25 c 0.46875,0 0.515625,0.046875 0.515625,0.390625 v 1.8125 C 0.859375,-0.25 0.796875,-0.25 0.34375,-0.25 V 0 c 0.03125,0 0.5,-0.03125 0.796875,-0.03125 0.296875,0 0.59375,0.015625 0.90625,0.03125 V -0.25 H 1.90625 c -0.515625,0 -0.515625,-0.078125 -0.515625,-0.3125 z m 0,0"
               style="stroke:none;stroke-width:0" />
          </g>
          <g
             transform="translate(156.654,136.259)"
             id="g1498">
            <path
               id="id-91097341-4997-4818-a101-21721ce547f3"
               d="m 3.0625,-1.59375 c 0.15625,0 0.203125,0 0.203125,-0.140625 0,-0.625 -0.34375,-1.375 -1.390625,-1.375 -0.90625,0 -1.609375,0.71875 -1.609375,1.578125 0,0.890625 0.78125,1.59375 1.703125,1.59375 0.9375,0 1.296875,-0.75 1.296875,-0.90625 0,-0.015625 -0.015625,-0.09375 -0.125,-0.09375 -0.09375,0 -0.109375,0.046875 -0.125,0.109375 -0.21875,0.5625 -0.75,0.671875 -1,0.671875 C 1.6875,-0.15625 1.375,-0.296875 1.171875,-0.5625 0.90625,-0.890625 0.90625,-1.3125 0.90625,-1.59375 Z M 0.90625,-1.765625 C 0.984375,-2.75 1.609375,-2.90625 1.875,-2.90625 c 0.859375,0 0.890625,0.96875 0.90625,1.140625 z m 0,0"
               style="stroke:none;stroke-width:0" />
          </g>
          <g
             transform="translate(160.196,136.259)"
             id="g1501">
            <path
               id="id-f2e8912e-eb6d-4ecc-9285-bd8bc4940818"
               d="m 1.4375,-2.75 h 0.875 V -3 H 1.40625 v -0.78125 c 0,-0.640625 0.375,-0.921875 0.671875,-0.921875 0.0625,0 0.140625,0 0.203125,0.03125 C 2.1875,-4.625 2.125,-4.515625 2.125,-4.390625 c 0,0.1875 0.140625,0.3125 0.328125,0.3125 0.1875,0 0.328125,-0.125 0.328125,-0.3125 0,-0.3125 -0.3125,-0.515625 -0.6875,-0.515625 -0.546875,0 -1.1875,0.390625 -1.1875,1.125 V -3 H 0.3125 v 0.25 h 0.59375 v 2.203125 C 0.90625,-0.25 0.84375,-0.25 0.390625,-0.25 V 0 C 0.421875,0 0.90625,-0.03125 1.1875,-0.03125 1.484375,-0.03125 1.796875,-0.015625 2.09375,0 V -0.25 H 1.953125 C 1.4375,-0.25 1.4375,-0.328125 1.4375,-0.5625 Z m 0,0"
               style="stroke:none;stroke-width:0" />
          </g>
        </g>
      </g>
    </g>
    <g
       transform="matrix(0.440972,0,0,0.440972,88.333615,44.309687)"
       ns1:version="1.8.2"
       ns1:texconverter="pdflatex"
       ns1:pdfconverter="inkscape"
       ns1:text="$u$\n"
       ns1:preamble="C:/Users/marco/AppData/Roaming/inkscape/extensions/textext/default_packages.tex"
       ns1:scale="1.25"
       ns1:alignment="middle center"
       ns1:stroke-to-path="0"
       ns1:inkscapeversion="1.0"
       ns1:jacobian_sqrt="0.440972"
       id="g1674">
      <defs
         id="id-a4b28c2b-e06a-4546-bffb-a7c3e6f8f6eb">
        <g
           id="id-83d10d72-b3da-4b31-8b23-5e46c988f8c9">
          <symbol
             id="id-32b983b1-644f-4d5c-8df0-cbb906aab89a"
             overflow="visible">
            <path
               id="id-f0f60b51-3236-4fff-95a4-341f638766dd"
               d=""
               style="stroke:none;stroke-width:0" />
          </symbol>
          <symbol
             id="id-4c7d813b-843b-45ea-bc8e-58c35570270d"
             overflow="visible">
            <path
               id="id-3afde6b8-4986-4126-8e87-ab9ad7521782"
               d="M 3.484375,-0.5625 C 3.59375,-0.15625 3.953125,0.109375 4.375,0.109375 4.71875,0.109375 4.953125,-0.125 5.109375,-0.4375 5.28125,-0.796875 5.40625,-1.40625 5.40625,-1.421875 c 0,-0.109375 -0.078125,-0.109375 -0.109375,-0.109375 -0.109375,0 -0.109375,0.046875 -0.140625,0.1875 -0.140625,0.5625 -0.328125,1.234375 -0.75,1.234375 -0.203125,0 -0.3125,-0.125 -0.3125,-0.453125 0,-0.21875 0.125,-0.6875 0.203125,-1.046875 L 4.578125,-2.6875 C 4.609375,-2.828125 4.703125,-3.203125 4.75,-3.359375 4.796875,-3.59375 4.890625,-3.96875 4.890625,-4.03125 c 0,-0.171875 -0.140625,-0.265625 -0.28125,-0.265625 -0.046875,0 -0.3125,0.015625 -0.390625,0.34375 -0.1875,0.734375 -0.625,2.484375 -0.75,3 -0.015625,0.046875 -0.40625,0.84375 -1.140625,0.84375 -0.515625,0 -0.609375,-0.453125 -0.609375,-0.8125 0,-0.5625 0.28125,-1.34375 0.53125,-2.03125 0.125,-0.3125 0.171875,-0.453125 0.171875,-0.640625 0,-0.4375 -0.3125,-0.8125 -0.8125,-0.8125 -0.953125,0 -1.3125,1.453125 -1.3125,1.53125 0,0.109375 0.09375,0.109375 0.109375,0.109375 0.109375,0 0.109375,-0.03125 0.15625,-0.1875 0.25,-0.859375 0.640625,-1.234375 1.015625,-1.234375 0.09375,0 0.25,0.015625 0.25,0.328125 0,0.234375 -0.109375,0.53125 -0.171875,0.671875 -0.375,1 -0.578125,1.609375 -0.578125,2.09375 0,0.953125 0.6875,1.203125 1.21875,1.203125 0.65625,0 1.015625,-0.453125 1.1875,-0.671875 z m 0,0"
               style="stroke:none;stroke-width:0" />
          </symbol>
        </g>
      </defs>
      <g
         transform="translate(-149.009,-130.359)"
         id="id-676fb233-a136-416f-84f0-a3923ea02623">
        <g
           id="id-bd2228c7-d63a-4361-8cc4-6de835951eaa"
           style="fill:#000000;fill-opacity:1">
          <g
             transform="translate(148.712,134.765)"
             id="g1670">
            <path
               id="id-f4e368db-ec40-47f6-8640-36265fa2845e"
               d="M 3.484375,-0.5625 C 3.59375,-0.15625 3.953125,0.109375 4.375,0.109375 4.71875,0.109375 4.953125,-0.125 5.109375,-0.4375 5.28125,-0.796875 5.40625,-1.40625 5.40625,-1.421875 c 0,-0.109375 -0.078125,-0.109375 -0.109375,-0.109375 -0.109375,0 -0.109375,0.046875 -0.140625,0.1875 -0.140625,0.5625 -0.328125,1.234375 -0.75,1.234375 -0.203125,0 -0.3125,-0.125 -0.3125,-0.453125 0,-0.21875 0.125,-0.6875 0.203125,-1.046875 L 4.578125,-2.6875 C 4.609375,-2.828125 4.703125,-3.203125 4.75,-3.359375 4.796875,-3.59375 4.890625,-3.96875 4.890625,-4.03125 c 0,-0.171875 -0.140625,-0.265625 -0.28125,-0.265625 -0.046875,0 -0.3125,0.015625 -0.390625,0.34375 -0.1875,0.734375 -0.625,2.484375 -0.75,3 -0.015625,0.046875 -0.40625,0.84375 -1.140625,0.84375 -0.515625,0 -0.609375,-0.453125 -0.609375,-0.8125 0,-0.5625 0.28125,-1.34375 0.53125,-2.03125 0.125,-0.3125 0.171875,-0.453125 0.171875,-0.640625 0,-0.4375 -0.3125,-0.8125 -0.8125,-0.8125 -0.953125,0 -1.3125,1.453125 -1.3125,1.53125 0,0.109375 0.09375,0.109375 0.109375,0.109375 0.109375,0 0.109375,-0.03125 0.15625,-0.1875 0.25,-0.859375 0.640625,-1.234375 1.015625,-1.234375 0.09375,0 0.25,0.015625 0.25,0.328125 0,0.234375 -0.109375,0.53125 -0.171875,0.671875 -0.375,1 -0.578125,1.609375 -0.578125,2.09375 0,0.953125 0.6875,1.203125 1.21875,1.203125 0.65625,0 1.015625,-0.453125 1.1875,-0.671875 z m 0,0"
               style="stroke:none;stroke-width:0" />
          </g>
        </g>
      </g>
    </g>
    <g
       transform="matrix(0.440972,0,0,0.440972,88.333395,47.930617)"
       ns1:version="1.8.2"
       ns1:texconverter="pdflatex"
       ns1:pdfconverter="inkscape"
       ns1:text="$t_\\text{exec}$\n"
       ns1:preamble="C:/Users/marco/AppData/Roaming/inkscape/extensions/textext/default_packages.tex"
       ns1:scale="1.25"
       ns1:alignment="middle center"
       ns1:stroke-to-path="0"
       ns1:inkscapeversion="1.0"
       ns1:jacobian_sqrt="0.440972"
       id="g1860">
      <defs
         id="id-138772ee-5c14-490b-bc8e-296ae7b00976">
        <g
           id="id-2a5a7f3a-fcc0-4a81-b63f-ee16e830c9ba">
          <symbol
             id="id-654d2501-84ec-4ff8-a9ba-091e32a4c6e0"
             overflow="visible">
            <path
               id="id-2f157f23-b7a8-49ec-a16c-eed56a64e3ec"
               d=""
               style="stroke:none;stroke-width:0" />
          </symbol>
          <symbol
             id="id-19691818-dcc6-4b87-bf27-40d5bf80d733"
             overflow="visible">
            <path
               id="id-26bce0c2-ccbe-4a92-b816-e099ae7397e0"
               d="m 2.046875,-3.984375 h 0.9375 c 0.203125,0 0.3125,0 0.3125,-0.203125 0,-0.109375 -0.109375,-0.109375 -0.28125,-0.109375 h -0.875 C 2.5,-5.71875 2.546875,-5.90625 2.546875,-5.96875 c 0,-0.171875 -0.125,-0.265625 -0.296875,-0.265625 -0.03125,0 -0.3125,0 -0.390625,0.359375 L 1.46875,-4.296875 h -0.9375 c -0.203125,0 -0.296875,0 -0.296875,0.1875 0,0.125 0.078125,0.125 0.28125,0.125 h 0.875 C 0.671875,-1.15625 0.625,-0.984375 0.625,-0.8125 0.625,-0.265625 1,0.109375 1.546875,0.109375 2.5625,0.109375 3.125,-1.34375 3.125,-1.421875 3.125,-1.53125 3.046875,-1.53125 3.015625,-1.53125 2.921875,-1.53125 2.90625,-1.5 2.859375,-1.390625 2.4375,-0.34375 1.90625,-0.109375 1.5625,-0.109375 c -0.203125,0 -0.3125,-0.125 -0.3125,-0.453125 0,-0.25 0.03125,-0.3125 0.0625,-0.484375 z m 0,0"
               style="stroke:none;stroke-width:0" />
          </symbol>
          <symbol
             id="id-eacecfff-49f7-411a-a404-388b255e8414"
             overflow="visible">
            <path
               id="id-7c2a6cfc-be79-4ef8-b35e-169b1eab0bf3"
               d=""
               style="stroke:none;stroke-width:0" />
          </symbol>
          <symbol
             id="id-23bf6f79-ec27-4a48-8df6-15d7c3680199"
             overflow="visible">
            <path
               id="id-ad40602d-9126-429e-a361-2004ccda45da"
               d="m 3.0625,-1.59375 c 0.15625,0 0.203125,0 0.203125,-0.140625 0,-0.625 -0.34375,-1.375 -1.390625,-1.375 -0.90625,0 -1.609375,0.71875 -1.609375,1.578125 0,0.890625 0.78125,1.59375 1.703125,1.59375 0.9375,0 1.296875,-0.75 1.296875,-0.90625 0,-0.015625 -0.015625,-0.09375 -0.125,-0.09375 -0.09375,0 -0.109375,0.046875 -0.125,0.109375 -0.21875,0.5625 -0.75,0.671875 -1,0.671875 C 1.6875,-0.15625 1.375,-0.296875 1.171875,-0.5625 0.90625,-0.890625 0.90625,-1.3125 0.90625,-1.59375 Z M 0.90625,-1.765625 C 0.984375,-2.75 1.609375,-2.90625 1.875,-2.90625 c 0.859375,0 0.890625,0.96875 0.90625,1.140625 z m 0,0"
               style="stroke:none;stroke-width:0" />
          </symbol>
          <symbol
             id="id-972ae82b-175e-40b6-b390-8282a3895ce4"
             overflow="visible">
            <path
               id="id-4ba87f24-7d97-4b0d-8c35-5d0960609c0d"
               d="m 2.359375,-1.5625 c 0,0 -0.046875,-0.0625 -0.046875,-0.0625 0,-0.03125 0.453125,-0.515625 0.515625,-0.578125 C 3.078125,-2.484375 3.3125,-2.75 3.875,-2.75 V -3 C 3.671875,-2.984375 3.46875,-2.96875 3.28125,-2.96875 3.078125,-2.96875 2.796875,-2.984375 2.59375,-3 v 0.25 c 0.109375,0.015625 0.140625,0.09375 0.140625,0.15625 0,0.015625 0,0.125 -0.109375,0.234375 L 2.140625,-1.8125 1.5625,-2.46875 C 1.484375,-2.546875 1.484375,-2.578125 1.484375,-2.609375 c 0,-0.09375 0.09375,-0.140625 0.1875,-0.140625 V -3 c -0.25,0.015625 -0.515625,0.03125 -0.78125,0.03125 C 0.6875,-2.96875 0.421875,-2.984375 0.21875,-3 v 0.25 c 0.3125,0 0.5,0 0.6875,0.203125 l 0.859375,1 c 0.015625,0.015625 0.0625,0.0625 0.0625,0.078125 0,0.015625 -0.53125,0.59375 -0.59375,0.671875 -0.265625,0.28125 -0.5,0.53125 -1.046875,0.546875 V 0 C 0.390625,-0.015625 0.546875,-0.03125 0.765625,-0.03125 0.96875,-0.03125 1.25,-0.015625 1.453125,0 V -0.25 C 1.375,-0.265625 1.3125,-0.3125 1.3125,-0.40625 1.3125,-0.546875 1.390625,-0.640625 1.5,-0.75 L 2,-1.296875 2.59375,-0.59375 c 0.140625,0.140625 0.140625,0.15625 0.140625,0.203125 0,0.125 -0.15625,0.140625 -0.1875,0.140625 V 0 c 0.0625,0 0.5625,-0.03125 0.78125,-0.03125 C 3.546875,-0.03125 3.78125,-0.015625 4,0 v -0.25 c -0.46875,0 -0.515625,-0.046875 -0.6875,-0.21875 z m 0,0"
               style="stroke:none;stroke-width:0" />
          </symbol>
          <symbol
             id="id-5da46848-f355-423b-bfe0-cf06ad9dbdbf"
             overflow="visible">
            <path
               id="id-af8932b4-d488-402c-89d7-97417ba228a7"
               d="m 2.703125,-2.78125 c -0.125,0.0625 -0.1875,0.171875 -0.1875,0.3125 0,0.1875 0.125,0.328125 0.328125,0.328125 0.1875,0 0.328125,-0.125 0.328125,-0.34375 0,-0.625 -0.96875,-0.625 -1.15625,-0.625 -1.046875,0 -1.6875,0.796875 -1.6875,1.609375 0,0.875 0.734375,1.5625 1.65625,1.5625 1.03125,0 1.28125,-0.8125 1.28125,-0.90625 0,-0.078125 -0.09375,-0.078125 -0.125,-0.078125 -0.09375,0 -0.09375,0.015625 -0.125,0.125 C 2.859375,-0.375 2.484375,-0.15625 2.0625,-0.15625 c -0.484375,0 -1.109375,-0.359375 -1.109375,-1.359375 0,-0.875 0.4375,-1.375 1.078125,-1.375 0.09375,0 0.421875,0 0.671875,0.109375 z m 0,0"
               style="stroke:none;stroke-width:0" />
          </symbol>
        </g>
      </defs>
      <g
         transform="translate(-148.946,-128.531)"
         id="id-9406d9f3-bedf-41de-9bbc-7a2e270bdba3">
        <g
           id="id-03f2ca23-5e4b-4c33-b102-85ce7f8afa7e"
           style="fill:#000000;fill-opacity:1">
          <g
             transform="translate(148.712,134.765)"
             id="g1843">
            <path
               id="id-a86e942b-8d4f-438c-ab2e-fdd106398288"
               d="m 2.046875,-3.984375 h 0.9375 c 0.203125,0 0.3125,0 0.3125,-0.203125 0,-0.109375 -0.109375,-0.109375 -0.28125,-0.109375 h -0.875 C 2.5,-5.71875 2.546875,-5.90625 2.546875,-5.96875 c 0,-0.171875 -0.125,-0.265625 -0.296875,-0.265625 -0.03125,0 -0.3125,0 -0.390625,0.359375 L 1.46875,-4.296875 h -0.9375 c -0.203125,0 -0.296875,0 -0.296875,0.1875 0,0.125 0.078125,0.125 0.28125,0.125 h 0.875 C 0.671875,-1.15625 0.625,-0.984375 0.625,-0.8125 0.625,-0.265625 1,0.109375 1.546875,0.109375 2.5625,0.109375 3.125,-1.34375 3.125,-1.421875 3.125,-1.53125 3.046875,-1.53125 3.015625,-1.53125 2.921875,-1.53125 2.90625,-1.5 2.859375,-1.390625 2.4375,-0.34375 1.90625,-0.109375 1.5625,-0.109375 c -0.203125,0 -0.3125,-0.125 -0.3125,-0.453125 0,-0.25 0.03125,-0.3125 0.0625,-0.484375 z m 0,0"
               style="stroke:none;stroke-width:0" />
          </g>
        </g>
        <g
           id="id-dafbb48e-d6ce-4934-bbfd-7292070af97b"
           style="fill:#000000;fill-opacity:1">
          <g
             transform="translate(152.31,136.259)"
             id="g1847">
            <path
               id="id-9f1bc67e-73de-48cb-af44-10e3c7df24e8"
               d="m 3.0625,-1.59375 c 0.15625,0 0.203125,0 0.203125,-0.140625 0,-0.625 -0.34375,-1.375 -1.390625,-1.375 -0.90625,0 -1.609375,0.71875 -1.609375,1.578125 0,0.890625 0.78125,1.59375 1.703125,1.59375 0.9375,0 1.296875,-0.75 1.296875,-0.90625 0,-0.015625 -0.015625,-0.09375 -0.125,-0.09375 -0.09375,0 -0.109375,0.046875 -0.125,0.109375 -0.21875,0.5625 -0.75,0.671875 -1,0.671875 C 1.6875,-0.15625 1.375,-0.296875 1.171875,-0.5625 0.90625,-0.890625 0.90625,-1.3125 0.90625,-1.59375 Z M 0.90625,-1.765625 C 0.984375,-2.75 1.609375,-2.90625 1.875,-2.90625 c 0.859375,0 0.890625,0.96875 0.90625,1.140625 z m 0,0"
               style="stroke:none;stroke-width:0" />
          </g>
          <g
             transform="translate(155.852,136.259)"
             id="g1850">
            <path
               id="id-7aadbeec-4c39-46e7-9042-e082a548224a"
               d="m 2.359375,-1.5625 c 0,0 -0.046875,-0.0625 -0.046875,-0.0625 0,-0.03125 0.453125,-0.515625 0.515625,-0.578125 C 3.078125,-2.484375 3.3125,-2.75 3.875,-2.75 V -3 C 3.671875,-2.984375 3.46875,-2.96875 3.28125,-2.96875 3.078125,-2.96875 2.796875,-2.984375 2.59375,-3 v 0.25 c 0.109375,0.015625 0.140625,0.09375 0.140625,0.15625 0,0.015625 0,0.125 -0.109375,0.234375 L 2.140625,-1.8125 1.5625,-2.46875 C 1.484375,-2.546875 1.484375,-2.578125 1.484375,-2.609375 c 0,-0.09375 0.09375,-0.140625 0.1875,-0.140625 V -3 c -0.25,0.015625 -0.515625,0.03125 -0.78125,0.03125 C 0.6875,-2.96875 0.421875,-2.984375 0.21875,-3 v 0.25 c 0.3125,0 0.5,0 0.6875,0.203125 l 0.859375,1 c 0.015625,0.015625 0.0625,0.0625 0.0625,0.078125 0,0.015625 -0.53125,0.59375 -0.59375,0.671875 -0.265625,0.28125 -0.5,0.53125 -1.046875,0.546875 V 0 C 0.390625,-0.015625 0.546875,-0.03125 0.765625,-0.03125 0.96875,-0.03125 1.25,-0.015625 1.453125,0 V -0.25 C 1.375,-0.265625 1.3125,-0.3125 1.3125,-0.40625 1.3125,-0.546875 1.390625,-0.640625 1.5,-0.75 L 2,-1.296875 2.59375,-0.59375 c 0.140625,0.140625 0.140625,0.15625 0.140625,0.203125 0,0.125 -0.15625,0.140625 -0.1875,0.140625 V 0 c 0.0625,0 0.5625,-0.03125 0.78125,-0.03125 C 3.546875,-0.03125 3.78125,-0.015625 4,0 v -0.25 c -0.46875,0 -0.515625,-0.046875 -0.6875,-0.21875 z m 0,0"
               style="stroke:none;stroke-width:0" />
          </g>
          <g
             transform="translate(160.038,136.259)"
             id="g1853">
            <path
               id="id-2e4a511f-317b-4baf-b262-d681adc25e66"
               d="m 3.0625,-1.59375 c 0.15625,0 0.203125,0 0.203125,-0.140625 0,-0.625 -0.34375,-1.375 -1.390625,-1.375 -0.90625,0 -1.609375,0.71875 -1.609375,1.578125 0,0.890625 0.78125,1.59375 1.703125,1.59375 0.9375,0 1.296875,-0.75 1.296875,-0.90625 0,-0.015625 -0.015625,-0.09375 -0.125,-0.09375 -0.09375,0 -0.109375,0.046875 -0.125,0.109375 -0.21875,0.5625 -0.75,0.671875 -1,0.671875 C 1.6875,-0.15625 1.375,-0.296875 1.171875,-0.5625 0.90625,-0.890625 0.90625,-1.3125 0.90625,-1.59375 Z M 0.90625,-1.765625 C 0.984375,-2.75 1.609375,-2.90625 1.875,-2.90625 c 0.859375,0 0.890625,0.96875 0.90625,1.140625 z m 0,0"
               style="stroke:none;stroke-width:0" />
          </g>
          <g
             transform="translate(163.58,136.259)"
             id="g1856">
            <path
               id="id-10e092b7-d2bd-4e6b-8bcb-a4693fe15500"
               d="m 2.703125,-2.78125 c -0.125,0.0625 -0.1875,0.171875 -0.1875,0.3125 0,0.1875 0.125,0.328125 0.328125,0.328125 0.1875,0 0.328125,-0.125 0.328125,-0.34375 0,-0.625 -0.96875,-0.625 -1.15625,-0.625 -1.046875,0 -1.6875,0.796875 -1.6875,1.609375 0,0.875 0.734375,1.5625 1.65625,1.5625 1.03125,0 1.28125,-0.8125 1.28125,-0.90625 0,-0.078125 -0.09375,-0.078125 -0.125,-0.078125 -0.09375,0 -0.09375,0.015625 -0.125,0.125 C 2.859375,-0.375 2.484375,-0.15625 2.0625,-0.15625 c -0.484375,0 -1.109375,-0.359375 -1.109375,-1.359375 0,-0.875 0.4375,-1.375 1.078125,-1.375 0.09375,0 0.421875,0 0.671875,0.109375 z m 0,0"
               style="stroke:none;stroke-width:0" />
          </g>
        </g>
      </g>
    </g>
    <g
       transform="matrix(0.440972,0,0,0.440972,62.071755,45.842842)"
       ns1:version="1.11.1"
       ns1:texconverter="pdflatex"
       ns1:pdfconverter="inkscape"
       ns1:text="DLL"
       ns1:preamble="/home/marco/.config/inkscape/extensions/textext/default_packages.tex"
       ns1:scale="1.25"
       ns1:alignment="middle center"
       ns1:inkscapeversion="1.0"
       ns1:jacobian_sqrt="0.440972"
       id="g4">
      <defs
         id="id-19078ad7-a939-4200-948a-1bf6fc4678a8">
        <g
           id="id-a2a152c0-15e2-4982-a497-93545e1e14de">
          <g
             id="id-34daae3a-09eb-4197-beeb-9a609c51a5f3">
            <path
               d="M 0.34375,-6.8125 V -6.5 h 0.25 c 0.765625,0 0.78125,0.109375 0.78125,0.46875 v 5.25 c 0,0.359375 -0.015625,0.46875 -0.78125,0.46875 h -0.25 V 0 H 4 C 5.671875,0 7.046875,-1.46875 7.046875,-3.34375 7.046875,-5.25 5.703125,-6.8125 4,-6.8125 Z m 2.375,6.5 C 2.25,-0.3125 2.234375,-0.375 2.234375,-0.703125 V -6.09375 C 2.234375,-6.4375 2.25,-6.5 2.71875,-6.5 h 1 c 0.625,0 1.3125,0.21875 1.8125,0.921875 0.4375,0.59375 0.515625,1.453125 0.515625,2.234375 0,1.09375 -0.1875,1.703125 -0.546875,2.1875 -0.203125,0.265625 -0.765625,0.84375 -1.765625,0.84375 z m 0,0"
               id="id-e4428daf-4fe4-4da2-8855-f67de3cd37df" />
          </g>
          <g
             id="id-3bd4b82c-f5cc-49d2-bb22-268bf78c3600">
            <path
               d="m 5.796875,-2.578125 h -0.25 c -0.109375,1.015625 -0.25,2.265625 -2,2.265625 h -0.8125 C 2.265625,-0.3125 2.25,-0.375 2.25,-0.703125 v -5.3125 C 2.25,-6.359375 2.25,-6.5 3.1875,-6.5 H 3.515625 V -6.8125 C 3.15625,-6.78125 2.25,-6.78125 1.84375,-6.78125 c -0.390625,0 -1.171875,0 -1.515625,-0.03125 V -6.5 H 0.5625 c 0.765625,0 0.796875,0.109375 0.796875,0.46875 v 5.25 c 0,0.359375 -0.03125,0.46875 -0.796875,0.46875 H 0.328125 V 0 h 5.1875 z m 0,0"
               id="id-2ebb4d51-6512-418a-bf51-ef0499b970de" />
          </g>
        </g>
      </defs>
      <g
         fill="#000000"
         fill-opacity="1"
         id="id-9198a85c-1414-42bb-bc67-e1e762f09b92"
         transform="translate(-149.056,-127.953)">
        <g
           transform="translate(148.712,134.765)"
           id="g1">
          <path
             d="M 0.34375,-6.8125 V -6.5 h 0.25 c 0.765625,0 0.78125,0.109375 0.78125,0.46875 v 5.25 c 0,0.359375 -0.015625,0.46875 -0.78125,0.46875 h -0.25 V 0 H 4 C 5.671875,0 7.046875,-1.46875 7.046875,-3.34375 7.046875,-5.25 5.703125,-6.8125 4,-6.8125 Z m 2.375,6.5 C 2.25,-0.3125 2.234375,-0.375 2.234375,-0.703125 V -6.09375 C 2.234375,-6.4375 2.25,-6.5 2.71875,-6.5 h 1 c 0.625,0 1.3125,0.21875 1.8125,0.921875 0.4375,0.59375 0.515625,1.453125 0.515625,2.234375 0,1.09375 -0.1875,1.703125 -0.546875,2.1875 -0.203125,0.265625 -0.765625,0.84375 -1.765625,0.84375 z m 0,0"
             id="id-d6e52a94-8766-41e9-85fb-d51a05f0e8a3" />
        </g>
        <g
           transform="translate(156.322,134.765)"
           id="g2">
          <path
             d="m 5.796875,-2.578125 h -0.25 c -0.109375,1.015625 -0.25,2.265625 -2,2.265625 h -0.8125 C 2.265625,-0.3125 2.25,-0.375 2.25,-0.703125 v -5.3125 C 2.25,-6.359375 2.25,-6.5 3.1875,-6.5 H 3.515625 V -6.8125 C 3.15625,-6.78125 2.25,-6.78125 1.84375,-6.78125 c -0.390625,0 -1.171875,0 -1.515625,-0.03125 V -6.5 H 0.5625 c 0.765625,0 0.796875,0.109375 0.796875,0.46875 v 5.25 c 0,0.359375 -0.03125,0.46875 -0.796875,0.46875 H 0.328125 V 0 h 5.1875 z m 0,0"
             id="id-c72ff13c-a4b7-4a3a-bf48-3d9686b61242" />
        </g>
        <g
           transform="translate(162.549,134.765)"
           id="g3">
          <path
             d="m 5.796875,-2.578125 h -0.25 c -0.109375,1.015625 -0.25,2.265625 -2,2.265625 h -0.8125 C 2.265625,-0.3125 2.25,-0.375 2.25,-0.703125 v -5.3125 C 2.25,-6.359375 2.25,-6.5 3.1875,-6.5 H 3.515625 V -6.8125 C 3.15625,-6.78125 2.25,-6.78125 1.84375,-6.78125 c -0.390625,0 -1.171875,0 -1.515625,-0.03125 V -6.5 H 0.5625 c 0.765625,0 0.796875,0.109375 0.796875,0.46875 v 5.25 c 0,0.359375 -0.03125,0.46875 -0.796875,0.46875 H 0.328125 V 0 h 5.1875 z m 0,0"
             id="id-42ca5a14-0134-4e7e-891c-8a4852445b19" />
        </g>
      </g>
    </g>
  </g>
</svg>
